<svg height="512pt" viewBox="0 -13 512.00017 512" width="512pt" xmlns="http://www.w3.org/2000/svg"><path d="m13.945312 251.042969c-9.957031-2.585938-15.929687-12.757813-13.339843-22.714844l20.335937-78.234375c1.308594-5.035156 4.664063-9.292969 9.25-11.742188l23.332032-12.464843 25.503906 6.242187-7.691406 26.480469-16.386719 8.757813-18.285157 70.335937c-2.589843 9.953125-12.757812 15.929687-22.71875 13.339844zm0 0" fill="#ffb69e"/><path d="m122.550781 110.125c-4.847656-9.074219-16.136719-12.5-25.207031-7.652344l-43.820312 23.410156 17.8125 32.726563 43.5625-23.273437c9.074218-4.847657 12.5-16.132813 7.652343-25.210938zm0 0" fill="#4699f2"/><path d="m137.648438 446.835938c0 21.972656-17.8125 39.785156-39.785157 39.785156-21.972656 0-39.785156-17.8125-39.785156-39.785156 0-21.972657 17.8125-39.785157 39.785156-39.785157 21.972657 0 39.785157 17.8125 39.785157 39.785157zm0 0" fill="#55879b"/><path d="m173.082031 486.621094c-12.941406-.179688-23.289062-10.8125-23.109375-23.753906l1.5-109.3125-2.277344-16.109376 22.421876-24.792968 24.964843 24.792968 1.535157 11.199219c.179687 1.222657.257812 2.457031.242187 3.695313l-1.527344 111.171875c-.175781 13.03125-10.914062 23.296875-23.75 23.109375zm0 0" fill="#ffb69e"/><path d="m28.152344 446.640625c-9.523438-8.765625-10.132813-23.589844-1.367188-33.109375l65.261719-70.878906-.683594-5.207032 21.527344-21.320312 25.734375 21.320312 1.234375 10.375c.8125 6.796876-1.390625 13.609376-6.03125 18.644532l-72.566406 78.808594c-8.773438 9.53125-23.59375 10.128906-33.109375 1.367187zm0 0" fill="#ffb69e"/><path d="m196.582031 337.445312-8.488281-61.8125-29.421875-29.757812-18.3125 29.003906 8.835937 62.566406zm0 0" fill="#414b82"/><path d="m138.625 337.445312-7.46875-62.710937-27.449219-32.289063-20.683593 31.53125 8.339843 63.46875zm0 0" fill="#414b82"/><path d="m188.09375 275.632812-105.070312-1.65625 2.261718-150.050781c.113282-7.367187 3.148438-14.390625 8.4375-19.519531 5.292969-5.132812 12.40625-7.949219 19.773438-7.832031l49.527344.78125c15.332031.238281 27.566406 12.859375 27.335937 28.191406zm0 0" fill="#64afff"/><path d="m146.90625.00390625c-22.703125-.35937525-41.402344 17.75781275-41.761719 40.46484375s17.757813 41.40625 40.464844 41.761719c22.707031.359375 41.402344-17.753907 41.761719-40.460938s-17.757813-41.40625-40.464844-41.76562475zm0 0" fill="#ffb69e"/><path d="m254.191406 229.878906-74.15625-6.316406c-6.21875-.527344-11.753906-4.132812-14.757812-9.605469l-19.457032-35.484375 5.429688-26.6875 27.632812 9.492188 14.265626 26.011718 64.203124 5.46875c10.253907.875 17.855469 9.890626 16.980469 20.144532-.867187 10.234375-9.878906 17.855468-20.140625 16.976562zm0 0" fill="#ffb69e"/><path d="m178.886719 161.277344-24.554688-44.78125c-4.949219-9.023438-16.273437-12.332032-25.292969-7.378906-9.019531 4.945312-12.324218 16.269531-7.378906 25.289062l24.160156 44.066406zm0 0" fill="#4699f2"/><path d="m257.644531 486.621094c-3.4375 0-6.925781-.726563-10.25-2.273438-12.210937-5.667968-17.511719-20.164062-11.839843-32.375l50.585937-108.9375c.824219-1.773437 1.859375-3.445312 3.082031-4.972656l12.570313-15.695312 39.65625-11.867188.90625 39.210938-13.238281 16.53125-49.347657 106.265624c-4.125 8.886719-12.929687 14.113282-22.125 14.113282zm0 0" fill="#80391b"/><path d="m487.636719 486.621094c-6.917969 0-13.789063-2.925782-18.609375-8.617188l-75.492188-89.085937c-4.375-5.164063-6.40625-11.917969-5.605468-18.640625l2.078124-17.445313 28.53125-21.300781 20.167969 25.390625-1.113281 8.578125 68.628906 80.988281c8.703125 10.269531 7.429688 25.652344-2.839844 34.355469-4.582031 3.878906-10.179687 5.777344-15.746093 5.777344zm0 0" fill="#80391b"/><path d="m342.355469 349.710938 57.316406-71.558594c8.417969-10.507813 6.71875-25.851563-3.789063-34.265625-10.507812-8.417969-25.847656-6.71875-34.261718 3.785156l-59.828125 74.695313zm0 0" fill="#55696e"/><path d="m438.707031 356.921875 8.363281-64.460937s-8.164062-30.207032-21.535156-31.796876c-13.363281-1.597656-25.492187 7.949219-27.085937 21.320313l-8.441407 70.847656zm0 0" fill="#748488"/><path d="m482.753906 284.292969c-10.699218 0-19.375-8.675781-19.375-19.378907v-61.550781l-10.789062-11.667969s-9.570313-25.722656-1.710938-32.988281 27.953125 4.277344 27.953125 4.277344l18.152344 19.636719c3.3125 3.582031 5.152344 8.277344 5.152344 13.15625v69.136718c-.003907 10.703126-8.679688 19.378907-19.382813 19.378907zm0 0" fill="#80391b"/><path d="m478.832031 162.984375-41.558593-44.949219c-7.265626-7.859375-19.527344-8.339844-27.386719-1.074218-7.855469 7.265624-8.335938 19.527343-1.070313 27.386718l43.773438 47.347656zm0 0" fill="#e64937"/><path d="m374.222656 293.601562 72.847656-1.148437-2.355468-156.085937c-.113282-7.667969-3.273438-14.972657-8.777344-20.308594-5.5-5.335938-12.902344-8.269532-20.566406-8.148438l-51.519532.8125c-15.949218.253906-28.675781 13.378906-28.433593 29.328125l1.804687 119.671875c.300782 20.128906 16.875 36.195313 37 35.878906zm0 0" fill="#fa503c"/><path d="m424.078125 49.539062c-.371094-23.621093-19.824219-42.464843-43.441406-42.09375-23.621094.375-42.464844 19.824219-42.09375 43.445313.375 23.617187 19.824219 42.464844 43.445312 42.089844 23.617188-.371094 42.464844-19.824219 42.089844-43.441407zm0 0" fill="#80391b"/><path d="m297.195312 282.09375c-6.136718-8.769531-4-20.851562 4.773438-26.984375l62.179688-43.496094 3.789062-23.5625s12.742188-18.523437 23.304688-16.828125c10.566406 1.699219 14.949218 23.058594 14.949218 23.058594l-5.082031 31.585938c-.832031 5.175781-3.726563 9.796874-8.023437 12.800781l-68.902344 48.195312c-8.734375 6.109375-20.828125 4.039063-26.988282-4.769531zm0 0" fill="#80391b"/><path d="m414.441406 142.96875c1.699219-10.566406-5.488281-20.511719-16.054687-22.210938-10.5625-1.699218-20.511719 5.488282-22.210938 16.058594l-8.238281 51.234375 38.253906 6.230469zm0 0" fill="#e64937"/></svg>