<?xml version="1.0" encoding="iso-8859-1"?>
<!-- Generator: Adobe Illustrator 19.0.0, SVG Export Plug-In . SVG Version: 6.00 Build 0)  -->
<svg version="1.1" id="Capa_1" xmlns="http://www.w3.org/2000/svg" xmlns:xlink="http://www.w3.org/1999/xlink" x="0px" y="0px"
	 viewBox="0 0 512.002 512.002" style="enable-background:new 0 0 512.002 512.002;" xml:space="preserve">
<path style="fill:#F2F2F2;" d="M510.028,439.853v72.149H1.974v-72.149c0-40.309,25.397-76.373,63.253-89.92l121.184-43.627h0.107
	l0.107,0.107h0.107c0.309,0.544,0.544,0.747,0.544,0.747c17.163,23.147,42.976,34.56,68.789,34.56
	c25.92,0,51.733-11.413,68.811-34.56c0.107,0,0.309-0.331,0.629-0.747l0.107-0.107h0.107l121.088,43.627
	C484.641,363.479,510.028,399.543,510.028,439.853"/>
<g>
	<path style="fill:#ACB3BA;" d="M256.225,344.482c-0.128,0.107-0.224,0.107-0.224,0.107v-0.224
		C256.097,344.354,256.225,344.482,256.225,344.482"/>
	<path style="fill:#ACB3BA;" d="M256.225,344.354v0.224c0,0-0.128,0-0.224-0.107C255.99,344.482,256.097,344.354,256.225,344.354"/>
</g>
<g>
	<path style="fill:#F8B64C;" d="M325.633,306.295c-0.853,1.163-0.96,1.163-0.107,0H325.633z"/>
	<path style="fill:#F8B64C;" d="M186.529,172.173c1.557,17.856-7.104,33.205-19.371,34.293
		c-12.245,1.067-23.456-12.544-25.024-30.421c-1.568-17.877,7.104-33.227,19.349-34.293
		C173.761,140.674,184.972,154.295,186.529,172.173"/>
	<path style="fill:#F8B64C;" d="M370.049,176.045c-1.557,17.877-12.747,31.477-25.024,30.421
		c-12.277-1.056-20.939-16.437-19.371-34.293c1.557-17.877,12.768-31.499,25.045-30.443
		C362.945,142.818,371.638,158.167,370.049,176.045"/>
</g>
<path style="fill:#FFD15C;" d="M256.097,22.957c-56.917,0-103.083,46.165-103.083,103.083v30.955c0,7.893,0.501,15.787,1.483,23.605
	v0.043c4.875,40.043,22.123,77.557,49.355,107.339l9.749,10.709c9.003,9.856,21.685,15.456,35.019,15.456h14.933
	c13.312,0,26.005-5.6,34.976-15.435l9.835-10.731c27.211-29.771,44.459-67.339,49.397-107.371
	c0.981-7.851,1.419-15.712,1.419-23.605V126.05C359.18,69.122,313.036,22.957,256.097,22.957"/>
<path style="fill:#334A5E;" d="M145.196,155.714l9.835,29.045c0,0-4.395-88.629,28.96-89.397c0,0,49.525,19.829,72.811,25.419
	c0,0,50.315,6.357,76.544-24.651c0,0,19.851,11.125,13.504,34.955c0,0,10.4,41.163,10.357,53.664l9.664-27.083
	c4.523-13.813,22.101-76.96-28.747-92.501c0,0-3.979-58.005-85.792-65.141c0,0-60.373-3.189-109.643,65.141l11.936-4.768
	C154.614,60.397,131.702,74.69,145.196,155.714"/>
<path style="fill:#F8B64C;" d="M308.342,287.938l-9.835,10.795c-8.96,9.835-21.643,15.456-34.955,15.456h-14.912
	c-13.312,0-26.037-5.621-34.997-15.477l-9.813-10.773c-6.293-6.933-12.064-14.293-17.291-21.984v40.331
	c0.043,0.043,0.064,0.064,0.107,0.107h0.085c0.309,0.544,0.523,0.747,0.523,0.747c17.184,23.147,42.997,34.56,68.811,34.56
	c25.92,0,51.733-11.413,68.789-34.56c0,0.107,0.213-0.213,0.651-0.747l-0.064,0.171c0.043-0.043,0.085-0.085,0.128-0.149
	l0.085-0.128v-40.331C320.406,273.645,314.657,281.122,308.342,287.938"/>
<g style="opacity:0.1;">
	<g>
		<path style="fill:#40596B;" d="M308.342,287.938l-9.813,10.773c-8.96,9.813-21.643,15.477-34.976,15.477H248.62
			c-12.373,0-24.085-5.045-32.875-13.6l-0.213,0.085l45.664,40.768c24.149-1.419,47.712-12.672,63.648-34.293
			c0,0.107,0.213-0.213,0.651-0.747l-0.331,0.96l0.48-1.067v-40.331C320.406,273.645,314.657,281.122,308.342,287.938"/>
	</g>
</g>
<path style="fill:#F8B64C;" d="M186.636,306.295c0.853,1.163,0.747,1.163-0.107,0H186.636z"/>
<g>
	<polygon style="fill:#4CDBC4;" points="163.574,314.562 163.574,512.002 122.924,512.002 122.924,329.186 	"/>
	<path style="fill:#4CDBC4;" d="M276.321,339.415v172.587H235.67V339.319c6.624,1.6,13.547,2.453,20.373,2.453
		S269.59,341.026,276.321,339.415"/>
	<polygon style="fill:#4CDBC4;" points="389.078,329.186 389.078,512.002 348.428,512.002 348.428,314.562 	"/>
</g>
<path style="fill:#40596B;" d="M170.764,320.333l0.213,0.245c20.373,26.997,51.456,42.475,85.397,42.475
	c34.4,0,65.728-15.776,85.984-43.253c1.461-1.984,2.443-4.149,3.125-6.379l-19.776-7.125h-0.107l-0.107,0.107
	c-0.309,0.416-0.544,0.747-0.651,0.747c-17.067,23.147-42.88,34.56-68.789,34.56c-25.813,0-51.627-11.413-68.789-34.56
	c0,0-0.224-0.224-0.544-0.747h-0.107l-0.107-0.107h-0.107l-19.669,7.083C167.617,315.874,168.908,318.231,170.764,320.333"/>
<g>
</g>
<g>
</g>
<g>
</g>
<g>
</g>
<g>
</g>
<g>
</g>
<g>
</g>
<g>
</g>
<g>
</g>
<g>
</g>
<g>
</g>
<g>
</g>
<g>
</g>
<g>
</g>
<g>
</g>
</svg>
